<?xml version="1.0" encoding="UTF-8"?>
<svg xmlns="http://www.w3.org/2000/svg" xmlns:xlink="http://www.w3.org/1999/xlink" width="192px" height="192px" viewBox="0 0 192 192" version="1.1">
<g id="surface1">
<path style=" stroke:none;fill-rule:nonzero;fill:rgb(45.490196%,53.725493%,57.647061%);fill-opacity:1;" d="M 118.78125 96.316406 C 137.003906 105.019531 159.484375 101.828125 174.578125 86.738281 C 193.722656 67.59375 193.722656 36.554688 174.578125 17.410156 L 162.714844 28.671875 C 162.820312 28.769531 162.921875 28.863281 163.023438 28.964844 C 167.808594 33.75 167.808594 41.511719 163.023438 46.296875 C 158.238281 51.082031 150.476562 51.082031 145.691406 46.296875 C 145.441406 46.042969 145.203125 45.78125 144.980469 45.515625 L 3.0625 180.257812 L 3.0625 188.925781 L 43.503906 188.925781 L 43.503906 171.59375 L 60.835938 171.59375 L 60.835938 154.261719 L 78.167969 154.261719 L 78.167969 136.929688 L 95.5 136.929688 L 95.5 119.597656 Z M 118.78125 96.316406 "/>
<path style=" stroke:none;fill-rule:nonzero;fill:rgb(63.529414%,69.411767%,71.764708%);fill-opacity:1;" d="M 52.171875 145.59375 L 69.5 145.59375 L 69.5 128.261719 L 86.832031 128.261719 L 86.832031 110.933594 L 143.09375 54.671875 C 151.023438 59.925781 161.8125 59.058594 168.800781 52.074219 C 175.789062 45.085938 176.652344 34.296875 171.402344 26.363281 L 177.347656 20.417969 C 176.472656 19.386719 175.550781 18.382812 174.578125 17.410156 C 155.433594 -1.734375 124.394531 -1.734375 105.25 17.410156 C 90.160156 32.5 86.96875 54.984375 95.671875 73.207031 L 3.0625 165.816406 L 3.0625 180.257812 L 34.839844 180.257812 L 34.839844 162.925781 L 52.171875 162.925781 Z M 145.691406 28.964844 C 150.476562 24.179688 158.238281 24.179688 163.023438 28.964844 C 167.808594 33.75 167.808594 41.507812 163.023438 46.296875 C 158.238281 51.082031 150.476562 51.082031 145.691406 46.296875 C 140.90625 41.507812 140.90625 33.75 145.691406 28.964844 Z M 145.691406 28.964844 "/>
<path style=" stroke:none;fill-rule:nonzero;fill:rgb(0%,0%,0%);fill-opacity:1;" d="M 154.359375 52.949219 C 158.449219 52.949219 162.296875 51.355469 165.191406 48.460938 C 168.082031 45.570312 169.675781 41.722656 169.675781 37.628906 C 169.675781 33.539062 168.082031 29.691406 165.191406 26.796875 C 162.296875 23.90625 158.449219 22.3125 154.359375 22.3125 C 150.265625 22.3125 146.417969 23.90625 143.523438 26.796875 C 137.550781 32.769531 137.550781 42.488281 143.523438 48.460938 C 146.417969 51.355469 150.265625 52.949219 154.359375 52.949219 Z M 147.859375 31.132812 C 149.59375 29.394531 151.902344 28.4375 154.359375 28.4375 C 156.8125 28.4375 159.121094 29.394531 160.855469 31.132812 C 162.59375 32.867188 163.550781 35.175781 163.550781 37.628906 C 163.550781 40.085938 162.59375 42.394531 160.855469 44.128906 C 159.121094 45.867188 156.8125 46.820312 154.359375 46.820312 C 151.902344 46.820312 149.59375 45.867188 147.859375 44.128906 C 144.273438 40.546875 144.273438 34.714844 147.859375 31.132812 Z M 147.859375 31.132812 "/>
<path style=" stroke:none;fill-rule:nonzero;fill:rgb(0%,0%,0%);fill-opacity:1;" d="M 176.746094 15.242188 C 156.4375 -5.066406 123.394531 -5.066406 103.085938 15.242188 C 88.019531 30.308594 83.695312 53.078125 92.007812 72.539062 L 0.898438 163.648438 C 0.324219 164.222656 0 165.003906 0 165.816406 L 0 188.925781 C 0 190.617188 1.371094 191.988281 3.0625 191.988281 L 43.503906 191.988281 C 45.195312 191.988281 46.566406 190.617188 46.566406 188.925781 L 46.566406 174.65625 L 60.835938 174.65625 C 62.527344 174.65625 63.898438 173.285156 63.898438 171.59375 L 63.898438 157.324219 L 78.167969 157.324219 C 79.859375 157.324219 81.230469 155.953125 81.230469 154.261719 L 81.230469 139.992188 L 95.5 139.992188 C 97.191406 139.992188 98.5625 138.621094 98.5625 136.929688 L 98.5625 119.597656 C 98.5625 117.90625 97.191406 116.535156 95.5 116.535156 C 93.804688 116.535156 92.433594 117.90625 92.433594 119.597656 L 92.433594 133.867188 L 78.167969 133.867188 C 76.476562 133.867188 75.101562 135.238281 75.101562 136.929688 L 75.101562 151.195312 L 60.835938 151.195312 C 59.144531 151.195312 57.773438 152.570312 57.773438 154.261719 L 57.773438 168.527344 L 43.503906 168.527344 C 41.8125 168.527344 40.441406 169.898438 40.441406 171.59375 L 40.441406 185.859375 L 6.128906 185.859375 L 6.128906 167.085938 L 97.839844 75.375 C 98.757812 74.453125 98.996094 73.058594 98.4375 71.886719 C 90.058594 54.347656 93.667969 33.324219 107.417969 19.574219 C 116.097656 10.894531 127.640625 6.117188 139.914062 6.117188 C 152.191406 6.117188 163.730469 10.894531 172.410156 19.574219 C 181.09375 28.257812 185.871094 39.796875 185.871094 52.074219 C 185.871094 64.347656 181.09375 75.890625 172.410156 84.570312 C 158.664062 98.320312 137.640625 101.929688 120.101562 93.550781 C 118.929688 92.992188 117.535156 93.230469 116.613281 94.148438 L 102 108.765625 C 100.800781 109.960938 100.800781 111.902344 102 113.097656 C 103.195312 114.292969 105.136719 114.292969 106.332031 113.097656 L 119.449219 99.980469 C 138.910156 108.292969 161.679688 103.96875 176.746094 88.902344 C 186.582031 79.066406 192 65.984375 192 52.074219 C 192 38.160156 186.582031 25.082031 176.746094 15.242188 Z M 176.746094 15.242188 "/>
</g>
</svg>
