<?xml version="1.0" encoding="UTF-8"?>
<svg xmlns="http://www.w3.org/2000/svg" xmlns:xlink="http://www.w3.org/1999/xlink" width="512px" height="512px" viewBox="0 0 512 512" version="1.1">
<g id="surface1">
<path style=" stroke:none;fill-rule:nonzero;fill:rgb(45.490196%,53.725493%,57.647061%);fill-opacity:1;" d="M 316.75 256.839844 C 365.339844 280.050781 425.296875 271.542969 465.542969 231.296875 C 516.59375 180.246094 516.59375 97.476562 465.542969 46.425781 L 433.910156 76.460938 C 434.1875 76.714844 434.460938 76.96875 434.730469 77.238281 C 447.492188 90 447.492188 110.691406 434.730469 123.457031 C 421.964844 136.21875 401.273438 136.21875 388.511719 123.457031 C 387.839844 122.785156 387.210938 122.085938 386.609375 121.371094 L 8.171875 480.6875 L 8.171875 503.796875 L 116.011719 503.796875 L 116.011719 457.578125 L 162.230469 457.578125 L 162.230469 411.363281 L 208.445312 411.363281 L 208.445312 365.144531 L 254.664062 365.144531 L 254.664062 318.929688 Z M 316.75 256.839844 "/>
<path style=" stroke:none;fill-rule:nonzero;fill:rgb(63.529414%,69.411767%,71.764708%);fill-opacity:1;" d="M 139.121094 388.253906 L 185.335938 388.253906 L 185.335938 342.035156 L 231.554688 342.035156 L 231.554688 295.820312 L 381.582031 145.792969 C 402.730469 159.804688 431.503906 157.492188 450.136719 138.859375 C 468.769531 120.226562 471.078125 91.457031 457.066406 70.308594 L 472.925781 54.449219 C 470.59375 51.699219 468.136719 49.019531 465.539062 46.425781 C 414.492188 -4.625 331.722656 -4.625 280.671875 46.425781 C 240.425781 86.671875 231.914062 146.628906 255.128906 195.21875 L 8.171875 442.175781 L 8.171875 480.6875 L 92.902344 480.6875 L 92.902344 434.472656 L 139.121094 434.472656 Z M 388.511719 77.238281 C 401.273438 64.472656 421.96875 64.472656 434.730469 77.238281 C 447.492188 90 447.492188 110.691406 434.730469 123.453125 C 421.964844 136.21875 401.273438 136.21875 388.511719 123.453125 C 375.75 110.691406 375.75 90 388.511719 77.238281 Z M 388.511719 77.238281 "/>
<path style=" stroke:none;fill-rule:nonzero;fill:rgb(0%,0%,0%);fill-opacity:1;" d="M 411.621094 141.199219 C 422.53125 141.199219 432.792969 136.949219 440.507812 129.234375 C 448.222656 121.519531 452.472656 111.261719 452.472656 100.347656 C 452.472656 89.433594 448.222656 79.175781 440.507812 71.460938 C 432.792969 63.746094 422.535156 59.496094 411.621094 59.496094 C 400.707031 59.496094 390.449219 63.746094 382.734375 71.460938 C 366.804688 87.386719 366.804688 113.304688 382.734375 129.230469 C 390.449219 136.945312 400.710938 141.199219 411.621094 141.199219 Z M 394.289062 83.015625 C 398.917969 78.386719 405.074219 75.835938 411.621094 75.835938 C 418.167969 75.835938 424.324219 78.386719 428.953125 83.015625 C 433.582031 87.644531 436.132812 93.800781 436.132812 100.347656 C 436.132812 106.894531 433.582031 113.050781 428.953125 117.679688 C 424.324219 122.308594 418.167969 124.859375 411.621094 124.859375 C 405.074219 124.859375 398.917969 122.308594 394.289062 117.679688 C 384.730469 108.121094 384.730469 92.570312 394.289062 83.015625 Z M 394.289062 83.015625 "/>
<path style=" stroke:none;fill-rule:nonzero;fill:rgb(0%,0%,0%);fill-opacity:1;" d="M 471.320312 40.648438 C 417.164062 -13.507812 329.046875 -13.507812 274.894531 40.648438 C 234.71875 80.824219 223.191406 141.546875 245.355469 193.433594 L 2.390625 436.394531 C 0.859375 437.929688 0 440.007812 0 442.175781 L 0 503.796875 C 0 508.308594 3.65625 511.96875 8.171875 511.96875 L 116.011719 511.96875 C 120.523438 511.96875 124.179688 508.308594 124.179688 503.796875 L 124.179688 465.75 L 162.226562 465.75 C 166.738281 465.75 170.398438 462.09375 170.398438 457.578125 L 170.398438 419.53125 L 208.445312 419.53125 C 212.960938 419.53125 216.617188 415.875 216.617188 411.363281 L 216.617188 373.3125 L 254.664062 373.3125 C 259.175781 373.3125 262.835938 369.65625 262.835938 365.144531 L 262.835938 318.925781 C 262.835938 314.414062 259.175781 310.757812 254.664062 310.757812 C 250.152344 310.757812 246.492188 314.414062 246.492188 318.925781 L 246.492188 356.972656 L 208.445312 356.972656 C 203.933594 356.972656 200.277344 360.632812 200.277344 365.144531 L 200.277344 403.191406 L 162.230469 403.191406 C 157.71875 403.191406 154.058594 406.847656 154.058594 411.363281 L 154.058594 449.410156 L 116.011719 449.410156 C 111.5 449.410156 107.84375 453.066406 107.84375 457.578125 L 107.84375 495.628906 L 16.339844 495.628906 L 16.339844 445.558594 L 260.902344 200.996094 C 263.351562 198.546875 263.992188 194.820312 262.5 191.695312 C 240.15625 144.925781 249.78125 88.867188 286.449219 52.203125 C 309.597656 29.054688 340.371094 16.308594 373.105469 16.308594 C 405.84375 16.308594 436.617188 29.054688 459.765625 52.203125 C 482.914062 75.347656 495.660156 106.125 495.660156 138.859375 C 495.660156 171.597656 482.914062 202.371094 459.765625 225.519531 C 423.101562 262.1875 367.046875 271.808594 320.273438 249.46875 C 317.148438 247.976562 313.421875 248.617188 310.972656 251.0625 L 271.996094 290.039062 C 268.804688 293.230469 268.804688 298.402344 271.996094 301.59375 C 275.1875 304.785156 280.359375 304.785156 283.550781 301.59375 L 318.535156 266.613281 C 370.425781 288.777344 431.144531 277.246094 471.320312 237.074219 C 497.550781 210.839844 512 175.960938 512 138.859375 C 512 101.761719 497.550781 66.882812 471.320312 40.648438 Z M 471.320312 40.648438 "/>
</g>
</svg>
